HIERARCHY
ROOT Hips
{
	OFFSET 0.00000 0.00000 0.00000
	CHANNELS 6 Xposition Yposition Zposition Zrotation Yrotation Xrotation 
	JOINT LHipJoint
	{
		OFFSET 0 0 0
		CHANNELS 3 Zrotation Yrotation Xrotation
		JOINT LeftHip
		{
			OFFSET 1.62964 -1.40469 0.78906
			CHANNELS 3 Zrotation Yrotation Xrotation
			JOINT LeftKnee
			{
				OFFSET 2.29640 -6.30932 0.00000
				CHANNELS 3 Zrotation Yrotation Xrotation
				JOINT LeftAnkle
				{
					OFFSET 2.29451 -6.30412 0.00000
					CHANNELS 3 Zrotation Yrotation Xrotation
					JOINT LeftToe
					{
						OFFSET 0.03611 -0.09921 1.56387
						CHANNELS 3 Zrotation Yrotation Xrotation
						End Site
						{
							OFFSET 0.00000 -0.00000 0.80291
						}
					}
				}
			}
		}
	}
	JOINT RHipJoint
	{
		OFFSET 0 0 0
		CHANNELS 3 Zrotation Yrotation Xrotation
		JOINT RightHip
		{
			OFFSET -1.73712 -1.40469 0.78906
			CHANNELS 3 Zrotation Yrotation Xrotation
			JOINT RightKnee
			{
				OFFSET -2.28137 -6.26801 0.00000
				CHANNELS 3 Zrotation Yrotation Xrotation
				JOINT RightAnkle
				{
					OFFSET -2.28681 -6.28298 0.00000
					CHANNELS 3 Zrotation Yrotation Xrotation
					JOINT RightToe
					{
						OFFSET -0.15927 -0.43759 1.61103
						CHANNELS 3 Zrotation Yrotation Xrotation
						End Site
						{
							OFFSET -0.00000 -0.00000 0.84630
						}
					}
				}
			}
		}
	}
	JOINT lowerback
	{
		OFFSET 0 0 0
		CHANNELS 3 Zrotation Yrotation Xrotation
		JOINT Chest
		{
			OFFSET -0.04227 2.04338 -0.00225
			CHANNELS 3 Zrotation Yrotation Xrotation
			JOINT Chest2
			{
				OFFSET -0.02148 2.04482 -0.04273
				CHANNELS 3 Zrotation Yrotation Xrotation
				JOINT lowerneck
				{
					OFFSET 0 0 0
					CHANNELS 3 Zrotation Yrotation Xrotation
					JOINT Neck
					{
						OFFSET 0.09180 1.44629 0.19359
						CHANNELS 3 Zrotation Yrotation Xrotation
						JOINT Head
						{
							OFFSET 0.00887 1.40645 0.14750
							CHANNELS 3 Zrotation Yrotation Xrotation
							End Site
							{
								OFFSET -0.00669 1.50671 0.03707
							}
						}
					}
				}
				JOINT LeftCollar
				{
					OFFSET 0 0 0
					CHANNELS 3 Zrotation Yrotation Xrotation
					JOINT LeftShoulder
					{
						OFFSET 2.17674 1.86763 -0.06520
CHANNELS 3 Zrotation Xrotation Yrotation
						JOINT LeftElbow
						{
OFFSET 0 -4.657760 0.000000
CHANNELS 3 Zrotation Xrotation Yrotation
							JOINT LeftWrist
							{
OFFSET 0 -3.555390 0.000000
CHANNELS 3 Zrotation Xrotation Yrotation
								JOINT lhand
								{
									OFFSET 0 0 0
CHANNELS 3 Zrotation Xrotation Yrotation
									JOINT LFingers
									{
OFFSET 0 -0.707260 0.000000
CHANNELS 3 Zrotation Xrotation Yrotation
										End Site
										{
OFFSET 0 -0.570220 0.000000
										}
									}
								}
								JOINT LThumb
								{
OFFSET 0 0.000000 0.000000
CHANNELS 3 Zrotation Xrotation Yrotation
									End Site
									{
OFFSET 0 -0.578920 0.578920
									}
								}
							}
						}
					}
				}
				JOINT RightCollar
				{
					OFFSET 0 0 0
					CHANNELS 3 Zrotation Yrotation Xrotation
					JOINT RightShoulder
					{
						OFFSET -2.80694 1.55459 -0.32496
CHANNELS 3 Zrotation Xrotation Yrotation
						JOINT RightElbow
						{
OFFSET 0 -4.719250 -0.000000
CHANNELS 3 Zrotation Xrotation Yrotation
							JOINT RightWrist
							{
OFFSET 0 -3.569900 0.000000
CHANNELS 3 Zrotation Xrotation Yrotation
								JOINT rhand
								{
									OFFSET 0 0 0
CHANNELS 3 Zrotation Xrotation Yrotation
									JOINT RFingers
									{
OFFSET 0 -0.507760 0.000000
CHANNELS 3 Zrotation Xrotation Yrotation
										End Site
										{
OFFSET 0 -0.409370 0.000000
										}
									}
								}
								JOINT RThumb
								{
OFFSET 0 0.000000 0.000000
CHANNELS 3 Zrotation Xrotation Yrotation
									End Site
									{
OFFSET 0 -0.415620 0.415620
									}
								}
							}
						}
					}
				}
			}
		}
	}
}
MOTION
Frames: 8
Frame Time: 0.008333333333333333
13.871367 17.333952 20.198072 163.413292 -8.341341 -161.660487 0.000000 0.000000 0.000000 6.826026 -20.410223 -29.926533 0.593547 4.932055 13.714972 -0.914777 19.360624 3.439599 0.338329 -3.721030 -10.294947 0.000000 0.000000 0.000000 -5.809269 10.770425 -19.397155 -4.367809 -12.634382 38.014717 -4.446583 -2.197813 -40.784969 -1.246827 7.079678 -19.951571 0.953774 0.455592 -18.332837 -1.193435 0.534478 3.096403 -1.727305 0.382816 13.877456 1.303714 5.032525 -1.267378 -1.950734 5.754231 22.465815 -0.549853 2.144452 7.168102 0.000000 0.000000 0.000000 8.344582 7.325368 -16.092638 12.836904 -21.047798 2.394406 19.474122 0.936980 14.232218 0.000000 0.000000 0.000000 -7.125000 0.000000 0.000000 -5.443389 14.969189 -3.870472 0.000000 0.000000 0.000000 -14.765218 0.625389 13.464117 -24.709159 -35.904589 -8.119021 -8.802918 2.477177 56.210964 0.000000 0.000000 0.000000 7.125000 0.000000 0.000000 80.056397 75.131822 -64.599064
13.793181 17.318040 20.177813 163.352830 -8.316991 -161.653544 0.000000 0.000000 0.000000 6.708687 -20.445143 -29.956862 0.577035 4.864221 13.521832 -0.885551 19.303109 3.798970 0.259577 -3.277123 -9.051305 0.000000 0.000000 0.000000 -6.162358 10.792470 -19.180252 -4.361713 -12.626784 37.986885 -4.496522 -2.081162 -40.973286 -1.231614 7.037866 -19.827596 0.944183 0.385007 -18.308631 -1.127331 0.436260 3.197214 -1.677253 0.335742 13.976324 1.100520 5.129442 -1.341872 -1.965741 5.935109 22.304848 -0.506683 2.226058 7.125598 0.000000 0.000000 0.000000 8.121979 7.301812 -15.520323 12.847526 -21.063394 2.398226 19.499275 1.186430 14.143570 0.000000 0.000000 0.000000 -7.125000 0.000000 0.000000 -5.423168 15.059457 -3.845406 0.000000 0.000000 0.000000 -15.057794 0.299878 13.845740 -25.011891 -36.215869 -8.297065 -8.289729 2.086721 55.279580 0.000000 0.000000 0.000000 7.125000 0.000000 0.000000 76.627188 74.851868 -60.923725
13.717233 17.300496 20.159595 163.314359 -8.367463 -161.648509 0.000000 0.000000 0.000000 6.606422 -20.441408 -30.077936 0.565956 4.818032 13.390345 -0.809805 19.067572 4.572336 0.237731 -3.136090 -8.657999 0.000000 0.000000 0.000000 -6.463720 10.757099 -18.979357 -4.366842 -12.633178 38.010368 -4.552093 -1.997985 -41.197137 -1.216567 6.996404 -19.704656 0.928787 0.349858 -18.268548 -1.082702 0.388939 3.285764 -1.632813 0.312176 14.053821 1.085070 5.184638 -1.398806 -2.046736 6.052134 22.168092 -0.520736 2.285818 7.094968 0.000000 0.000000 0.000000 8.066415 7.332705 -15.339699 12.894312 -21.132122 2.415023 19.328623 1.143733 14.170729 0.000000 0.000000 0.000000 -7.125000 0.000000 0.000000 -5.540589 15.047885 -3.930819 0.000000 0.000000 0.000000 -15.213049 0.055834 14.040506 -25.240791 -36.449135 -8.432559 -8.091220 1.898058 55.374703 0.000000 0.000000 0.000000 7.125000 0.000000 0.000000 77.028565 74.789891 -61.245172
13.638447 17.283534 20.138393 163.140503 -8.261368 -161.602713 0.000000 0.000000 0.000000 6.392790 -20.625611 -30.076070 0.549419 4.748404 13.192403 -0.780207 19.017281 4.928190 0.199143 -2.872846 -7.924918 0.000000 0.000000 0.000000 -7.003607 10.717578 -18.849940 -4.359379 -12.623849 37.976275 -4.590850 -1.936500 -41.351911 -1.229034 7.031006 -19.807359 0.754422 0.390481 -18.251247 -1.108823 0.487995 3.338430 -1.533418 0.345166 14.107589 1.145538 5.158093 -1.406608 -2.115431 6.028388 22.149688 -0.554150 2.276065 7.094035 0.000000 0.000000 0.000000 8.114502 7.420227 -15.487859 12.980477 -21.258571 2.446233 19.070552 0.945707 14.108141 0.000000 0.000000 0.000000 -7.125000 0.000000 0.000000 -5.714785 15.138800 -4.044546 0.000000 0.000000 0.000000 -15.334748 -0.157713 14.134389 -25.319747 -36.529109 -8.479543 -7.937548 1.821561 56.334984 0.000000 0.000000 0.000000 7.125000 0.000000 0.000000 80.606191 74.853327 -64.801681
13.551905 17.272940 20.115803 163.013179 -8.097638 -161.737332 0.000000 0.000000 0.000000 6.090747 -20.878469 -29.710026 0.522676 4.632979 12.864660 -0.783100 19.029768 4.905825 0.167658 -2.635399 -7.265392 0.000000 0.000000 0.000000 -7.475819 10.662383 -18.433083 -4.315180 -12.568396 37.773604 -4.630995 -1.672148 -41.448561 -1.209499 6.976869 -19.647030 0.715735 0.467677 -18.000630 -1.150291 0.607297 3.403750 -1.522434 0.399055 14.037924 1.262090 5.000604 -1.437840 -2.273925 5.820471 22.230146 -0.638097 2.166308 7.130410 0.000000 0.000000 0.000000 8.161037 7.615916 -15.687531 13.104848 -21.440614 2.491565 19.204171 0.705556 14.000571 0.000000 0.000000 0.000000 -7.125000 0.000000 0.000000 -5.620071 15.238286 -3.964878 0.000000 0.000000 0.000000 -15.474571 -0.402363 14.201250 -25.329966 -36.539366 -8.485545 -7.540518 1.510606 56.190648 0.000000 0.000000 0.000000 7.125000 0.000000 0.000000 80.142261 74.697897 -64.166505
13.459945 17.258740 20.099405 163.021880 -8.071600 -161.651058 0.000000 0.000000 0.000000 6.030181 -21.054197 -29.791219 0.510023 4.577567 12.707485 -0.759083 18.853136 4.991818 0.137312 -2.383605 -6.567262 0.000000 0.000000 0.000000 -7.846532 10.442264 -18.228907 -4.252278 -12.488559 37.483254 -4.649268 -1.503700 -41.478036 -1.235963 7.049648 -19.862654 0.931221 0.546227 -17.933636 -1.198070 0.669313 3.386572 -1.680399 0.447577 13.983794 1.426668 4.823941 -1.444866 -2.428599 5.580216 22.288067 -0.731981 2.046021 7.155145 0.000000 0.000000 0.000000 8.292228 7.805709 -15.858507 13.198611 -21.577508 2.525885 19.278193 0.470612 13.960422 0.000000 0.000000 0.000000 -7.125000 0.000000 0.000000 -5.568197 15.272923 -3.923675 0.000000 0.000000 0.000000 -15.498555 -0.646095 14.127462 -25.310936 -36.520070 -8.474208 -7.381272 1.534853 56.823843 0.000000 0.000000 0.000000 7.125000 0.000000 0.000000 82.492077 74.685855 -66.485220
13.375951 17.240451 20.079557 163.210669 -7.917514 -161.608401 0.000000 0.000000 0.000000 6.215201 -21.009369 -29.873236 0.497990 4.523961 12.555692 -0.728818 18.649238 5.131349 0.129705 -2.320790 -6.393053 0.000000 0.000000 0.000000 -8.005515 10.505614 -18.135442 -4.204128 -12.427131 37.260327 -4.620581 -1.805371 -41.444878 -1.398796 7.471043 -21.123537 1.178698 0.659508 -17.889095 -1.194998 0.765147 3.403450 -1.789599 0.512688 13.984845 1.514636 4.768747 -1.438852 -2.488846 5.512741 22.229992 -0.770666 2.019277 7.138079 0.000000 0.000000 0.000000 8.393325 7.897074 -15.777090 13.247781 -21.649205 2.543940 19.111102 0.410894 14.004172 0.000000 0.000000 0.000000 -7.125000 0.000000 0.000000 -5.683783 15.243419 -4.009625 0.000000 0.000000 0.000000 -15.496991 -0.896056 14.078541 -25.328535 -36.537842 -8.484708 -6.936360 1.200579 56.450671 0.000000 0.000000 0.000000 7.125000 0.000000 0.000000 81.231965 74.489719 -65.018222
13.291173 17.221047 20.060899 163.406896 -7.773376 -161.538898 0.000000 0.000000 0.000000 6.402239 -20.940200 -30.005942 0.485076 4.465908 12.391367 -0.684811 18.440840 5.461945 0.173755 -2.654896 -7.321114 0.000000 0.000000 0.000000 -8.164096 10.523146 -18.176728 -4.187694 -12.406112 37.184102 -4.581849 -2.245616 -41.410911 -1.626967 8.035866 -22.826097 1.401325 0.743361 -17.836034 -1.165603 0.824251 3.424647 -1.865914 0.557469 13.983762 1.487571 4.807964 -1.465951 -2.475682 5.582168 22.128979 -0.756083 2.059597 7.110078 0.000000 0.000000 0.000000 8.417092 7.964914 -15.642358 13.306161 -21.734085 2.565555 18.814652 0.347359 14.138441 0.000000 0.000000 0.000000 -7.125000 0.000000 0.000000 -5.890350 15.132076 -4.171155 0.000000 0.000000 0.000000 -15.554169 -1.130070 14.145771 -25.410552 -36.620585 -8.533667 -6.833537 0.976604 54.925048 0.000000 0.000000 0.000000 7.125000 0.000000 0.000000 75.782961 74.222629 -59.443136
